<?xml version="1.0" encoding="UTF-8" standalone="no"?>
<!-- Generated by SVGMaker - https://svgmaker.io -->

<!-- Quality: medium -->

<!-- Type: convert -->

<!-- Created: 2025-08-21T05:59:39.971Z -->

<svg
   version="1.1"
   style="display: block;"
   viewBox="0 0 2048 1534"
   width="809"
   height="606"
   id="svg21"
   sodipodi:docname="logopage.svg"
   inkscape:version="1.4.2 (f4327f4, 2025-05-13)"
   xmlns:inkscape="http://www.inkscape.org/namespaces/inkscape"
   xmlns:sodipodi="http://sodipodi.sourceforge.net/DTD/sodipodi-0.dtd"
   xmlns="http://www.w3.org/2000/svg"
   xmlns:svg="http://www.w3.org/2000/svg">
  <defs
     id="defs21" />
  <sodipodi:namedview
     id="namedview21"
     pagecolor="#ffffff"
     bordercolor="#000000"
     borderopacity="0.25"
     inkscape:showpageshadow="2"
     inkscape:pageopacity="0.0"
     inkscape:pagecheckerboard="0"
     inkscape:deskcolor="#d1d1d1"
     inkscape:zoom="1.2755776"
     inkscape:cx="404.13066"
     inkscape:cy="303"
     inkscape:window-width="1920"
     inkscape:window-height="991"
     inkscape:window-x="-9"
     inkscape:window-y="1341"
     inkscape:window-maximized="1"
     inkscape:current-layer="svg21" />
  <path
     transform="translate(0,0)"
     fill="rgb(0,179,185)"
     d="M 975.427 198.403 C 988.927 197.196 1002.91 198.556 1016.36 199.784 C 1062.79 204.025 1106.27 214.171 1148.96 233.149 C 1226.37 267.556 1303.35 340.027 1334.11 419.964 C 1328.3 427.875 1321.29 435.657 1314.38 442.635 C 1308.32 432.871 1303.69 421.845 1298.37 411.635 C 1290.11 395.727 1280.58 380.507 1269.88 366.122 C 1213.94 292.155 1131.04 243.278 1039.24 230.129 C 945.641 216.805 850.597 241.356 775.164 298.34 C 701.794 353.015 653.578 434.972 641.428 525.663 C 628.56 620.208 654.227 715.958 712.659 791.391 C 768.814 863.978 851.298 911.529 942.254 923.749 C 1044.75 937.411 1137.25 907.309 1218.4 845.067 C 1289.44 785.917 1334.44 701.257 1343.72 609.283 C 1345.7 589.456 1344.21 569.635 1345.73 549.836 C 1347.44 527.573 1354.74 504.148 1361.78 482.963 C 1367.85 502.308 1371.73 521.278 1373.32 541.525 C 1381.74 644.255 1348.69 746.081 1281.54 824.282 C 1215.5 901.262 1115.04 946.809 1014.87 954.398 C 915.058 961.961 813.067 925.718 737.755 860.633 C 664.328 797.177 617.53 700.585 610.569 604.051 C 602.942 498.278 634.25 404.747 703.703 324.734 C 757.837 262.369 837.736 219.275 918.585 204.255 C 937.305 200.777 956.46 199.713 975.427 198.403 z"
     id="path1" />
  <path
     fill="rgb(232,170,59)"
     d="M 979.482 449.189 C 1051.44 442.322 1115.3 495.215 1121.95 567.199 C 1128.59 639.183 1075.51 702.874 1003.5 709.302 C 931.808 715.702 868.45 662.892 861.832 591.219 C 855.213 519.545 907.829 456.026 979.482 449.189 z M 998.427 607.937 C 1014.98 604.137 1025.39 587.73 1021.79 571.136 C 1018.18 554.542 1001.9 543.936 985.261 547.346 C 974.325 549.588 965.438 557.537 961.995 568.156 C 958.551 578.776 961.083 590.426 968.623 598.659 C 976.163 606.892 987.546 610.436 998.427 607.937 z"
     id="path2"
     transform="translate(0,0)" />
  <path
     transform="translate(0,0)"
     fill="rgb(0,179,185)"
     d="M 1117.08 1211.21 C 1159.13 1207.2 1196.49 1237.97 1200.62 1280.01 C 1204.75 1322.04 1174.09 1359.49 1132.06 1363.74 C 1089.87 1368 1052.24 1337.19 1048.09 1294.99 C 1043.94 1252.78 1074.87 1215.24 1117.08 1211.21 z M 1129.54 1334.25 C 1155.21 1331.44 1173.73 1308.34 1170.89 1282.67 C 1168.05 1257 1144.92 1238.51 1119.26 1241.38 C 1093.63 1244.24 1075.17 1267.32 1078.01 1292.95 C 1080.85 1318.58 1103.91 1337.07 1129.54 1334.25 z"
     id="path3" />
  <path
     transform="translate(0,0)"
     fill="rgb(0,179,185)"
     d="M 941.58 1212.26 C 983.48 1206.73 1021.92 1236.23 1027.43 1278.14 C 1032.93 1320.04 1003.42 1358.46 961.513 1363.95 C 919.633 1369.44 881.232 1339.95 875.729 1298.07 C 870.227 1256.19 899.705 1217.78 941.58 1212.26 z M 954.485 1335 C 980.304 1333.5 1000 1311.33 998.446 1285.52 C 996.888 1259.7 974.665 1240.06 948.855 1241.68 C 923.137 1243.3 903.58 1265.43 905.133 1291.15 C 906.685 1316.87 928.76 1336.48 954.485 1335 z"
     id="path4" />
  <path
     transform="translate(0,0)"
     fill="rgb(0,179,185)"
     d="M 1018.32 1002.58 L 1058.13 1002.42 C 1058.12 1022.08 1059 1169.74 1057.43 1172 L 1054.25 1172.05 C 1044.39 1172.23 1034.54 1172.24 1024.68 1172.09 C 1013.27 1159.74 1003.71 1144.77 993.672 1131.27 C 978.206 1110.47 961.98 1090.05 947.67 1068.45 C 950.468 1102.86 948.557 1138.63 948.713 1173.19 L 909.753 1173.15 C 908.423 1159.75 909.177 1145.76 909.174 1132.26 L 909.627 1051.61 C 909.67 1044.31 908.071 1007.83 909.257 1004.49 C 909.517 1003.75 910.08 1003.17 910.491 1002.51 C 921.783 1002.5 933.075 1002.61 944.365 1002.83 C 953.525 1011.37 960.894 1023.53 968.448 1033.55 C 985.977 1056.52 1003.12 1079.79 1019.86 1103.34 C 1017.76 1090.72 1018.59 1076.91 1018.53 1064.11 L 1018.32 1002.58 z"
     id="path5" />
  <path
     transform="translate(0,0)"
     fill="rgb(0,179,185)"
     d="M 1404.14 183.786 C 1416.75 192.142 1427.34 204.491 1438.07 215.131 C 1456.18 232.985 1474.15 250.989 1491.96 269.142 C 1458.67 303.725 1424.86 337.807 1390.55 371.376 C 1381.6 367.261 1335.19 317.672 1324.88 307.288 C 1334 292.48 1359.17 271.091 1372.33 258.334 C 1365.92 250.432 1358.14 243.744 1350.55 237.021 C 1365.19 220.355 1387.16 198.188 1404.14 183.786 z"
     id="path6" />
  <path
     transform="translate(0,0)"
     fill="rgb(0,179,185)"
     d="M 1215.72 607.869 C 1219.77 609.2 1267.03 656.318 1271.12 662.32 C 1269.44 668.124 1212.76 723.621 1203.43 733.178 C 1214.03 741.919 1223.19 752.8 1232.47 762.915 C 1226.79 768.627 1221.24 774.536 1214.81 779.421 C 1207.7 772.252 1194.38 754.612 1185.54 751.402 L 1183.67 752.691 C 1174.12 762.63 1164.21 772.22 1153.97 781.443 C 1134.12 764.803 1116.22 743.198 1096.99 725.354 C 1110.86 704.644 1132.94 687.526 1150.7 670.072 C 1172.26 648.888 1191.74 626.583 1215.72 607.869 z"
     id="path7" />
  <path
     transform="translate(0,0)"
     fill="rgb(0,179,185)"
     d="M 667.156 1001.44 C 669.266 1001.2 672.144 1000.53 674.121 1001.5 C 679.551 1004.16 713.546 1102.36 718.06 1116.4 C 724.316 1094.81 733.276 1073.53 741.304 1052.54 C 747.686 1035.86 753.458 1018.11 761.416 1002.12 C 775.171 1001.46 789.286 1002.66 803.13 1002.43 C 795.897 1023.56 786.721 1044.18 778.98 1065.16 C 765.269 1100.77 752.727 1136.93 737.281 1171.83 C 723.846 1172.48 710.276 1172.13 696.823 1172.15 C 684.594 1143.38 674.576 1113.25 663.6 1083.95 C 653.443 1056.84 642.116 1030.15 633.087 1002.64 C 644.455 1002.71 655.821 1002.31 667.156 1001.44 z"
     id="path8" />
  <path
     transform="translate(0,0)"
     fill="rgb(0,179,185)"
     d="M 744.407 1215.03 C 771.806 1219.11 801.277 1210.33 827.923 1220.53 C 839.293 1224.88 847.691 1233.19 852.451 1244.37 C 857.695 1256.7 857.871 1271.49 852.625 1283.82 C 847.955 1294.79 839.18 1302.45 828.313 1306.95 C 839.801 1324.07 850.088 1341.94 861.408 1359.14 L 838.683 1359.43 C 833.907 1359.61 829.116 1359.62 824.337 1359.7 C 813.772 1344.55 805.109 1327.54 795.944 1311.48 C 789.328 1311.14 782.631 1311.23 776.003 1311.13 C 776.901 1327.12 776.371 1343.32 776.888 1359.35 C 766.216 1359.42 755.545 1359.63 744.878 1359.97 C 744.454 1311.67 745.631 1263.32 744.407 1215.03 z M 776.567 1286.74 C 791.73 1286.64 803.928 1286.27 817.999 1280 C 822.069 1275.95 824.413 1269.89 824.304 1264.16 C 824.195 1258.47 822.115 1252.56 817.775 1248.72 C 807.304 1239.47 788.864 1242.7 776.088 1242.16 L 776.567 1286.74 z"
     id="path9" />
  <path
     transform="translate(0,0)"
     fill="rgb(0,179,185)"
     d="M 643.721 1213.34 C 647.144 1212.74 651.017 1212.79 654.49 1212.81 C 676.407 1212.91 695.535 1222.56 710.843 1237.83 L 688.168 1258.15 C 681.952 1250.99 674.761 1244.98 665.557 1242.15 C 654.341 1238.7 641.221 1240.15 630.926 1245.74 C 619.978 1251.69 612.898 1261.73 609.515 1273.59 C 605.622 1287.16 607.367 1301.72 614.356 1313.99 C 619.932 1323.74 628.887 1331.12 639.806 1334.03 C 655.466 1338.2 668.356 1332.36 681.62 1324.63 C 681.184 1316.98 681.152 1309.66 681.631 1302 C 671.591 1302.06 661.553 1302.32 651.523 1302.78 C 650.844 1294 650.69 1284.75 651.525 1275.98 C 671.335 1276.68 691.386 1276.87 711.191 1275.95 L 711.326 1340.87 C 698.63 1351.61 684.384 1358.8 667.889 1361.55 C 647.024 1365.02 622.369 1361.44 605.047 1348.7 C 589.089 1336.96 579.39 1319.37 576.563 1299.9 C 573.291 1278.77 578.71 1257.22 591.587 1240.15 C 604.679 1222.67 622.891 1216.29 643.721 1213.34 z"
     id="path10" />
  <path
     transform="translate(0,0)"
     fill="rgb(0,179,185)"
     d="M 1251.8 1001.64 L 1253.37 1002.15 C 1253.66 1012.22 1195.81 1085.57 1190.39 1105.36 C 1186.67 1118.97 1188.18 1156.92 1189.98 1172.09 C 1176.65 1172 1163.32 1172.12 1149.99 1172.44 C 1149.69 1154.31 1152.95 1114.13 1146.96 1099.41 C 1142.51 1088.49 1134.25 1077.66 1128.01 1067.61 C 1113.44 1046.01 1100.34 1023.54 1084.89 1002.53 C 1095.12 1002.62 1120.97 999.785 1129.2 1003.05 C 1138.5 1006.74 1165.61 1055.64 1170.34 1067 C 1178.24 1047.4 1196.48 1020.02 1208.95 1002.61 C 1222.82 1001.04 1237.78 1001.89 1251.8 1001.64 z"
     id="path11" />
  <path
     transform="translate(0,0)"
     fill="rgb(0,179,185)"
     d="M 910.967 276.263 C 915.822 279.733 917.812 294.361 919.339 300.175 C 906.004 304.028 892.469 307.227 879.351 311.81 C 843.452 324.62 810.673 344.889 783.173 371.281 C 730.506 421.656 696.449 491.023 694.916 564.485 L 680.25 564.759 C 677.809 564.879 675.095 565.202 672.678 564.815 C 670.549 564.474 670.426 563.97 669.198 562.326 C 668.289 555.152 669.951 546.919 670.801 539.761 C 675.689 498.017 689.215 457.748 710.52 421.519 C 742.733 366.106 791.078 320.665 850.431 295.695 C 869.834 287.532 890.633 281.613 910.967 276.263 z"
     id="path12" />
  <path
     transform="translate(0,0)"
     fill="rgb(0,179,185)"
     d="M 1366.4 1215.41 C 1385.13 1217.11 1404.44 1216.16 1423.27 1216.07 C 1437.22 1216 1452.04 1216.9 1465.86 1215.11 C 1465.67 1224.39 1465.38 1233.67 1465.78 1242.95 C 1442.53 1241.31 1419.09 1243.57 1395.86 1242.28 L 1395.86 1271.48 C 1414.86 1270.69 1434.12 1271.19 1453.16 1270.92 C 1453.18 1279.98 1453.14 1289.04 1453.03 1298.11 C 1434.76 1294 1413.94 1296.01 1395.28 1296.32 C 1395.83 1300.54 1395.77 1304.98 1395.92 1309.25 L 1396.09 1334.8 C 1420.11 1334.79 1444.65 1335.75 1468.61 1334.07 C 1468.5 1342.57 1468.48 1351.04 1468.79 1359.54 C 1434.78 1358.29 1399.39 1358.54 1365.38 1359.91 C 1365.72 1339.98 1363.31 1222.13 1366.4 1215.41 z"
     id="path13" />
  <path
     transform="translate(0,0)"
     fill="rgb(0,179,185)"
     d="M 1307.61 1002.5 C 1309.45 1002.41 1311.18 1002.6 1313.01 1002.77 C 1313.47 1003.34 1314.12 1003.81 1314.38 1004.49 C 1316.88 1010.95 1314.73 1123.46 1314.05 1137.77 C 1340.9 1136.61 1367.91 1137.81 1394.81 1136.95 C 1394.09 1148.54 1394.18 1160.46 1394.97 1172.04 L 1370.75 1171.95 L 1275.92 1171.96 C 1275.3 1115.57 1275.89 1059.11 1275.92 1002.7 L 1307.61 1002.5 z"
     id="path14" />
  <path
     transform="translate(0,0)"
     fill="rgb(0,179,185)"
     d="M 1206.51 1214.96 C 1217.74 1216.63 1230.15 1215.65 1241.53 1215.59 L 1261.03 1271.6 C 1267.05 1288.81 1275.25 1306.73 1277.1 1324.95 C 1292.44 1289.8 1298.9 1249.92 1316.31 1215.72 C 1327.28 1215.86 1338.24 1216.08 1349.2 1215.53 C 1344.46 1225.05 1341.23 1235.73 1337.58 1245.73 C 1325.81 1283.94 1310.48 1321.13 1298.23 1359.23 C 1285.14 1359.18 1272 1358.92 1258.93 1359.66 C 1254.49 1342.07 1246.69 1324.35 1240.35 1307.35 C 1228.77 1276.66 1217.49 1245.86 1206.51 1214.96 z"
     id="path15" />
  <path
     transform="translate(0,0)"
     fill="rgb(0,179,185)"
     d="M 1352.47 365.431 C 1361.92 370.37 1370.57 380.052 1378.11 387.432 C 1370.75 415.214 1362.74 442.793 1355.13 470.502 C 1348.28 495.445 1343.06 528.566 1329.59 550.411 C 1315.14 573.85 1287.77 601.428 1269.8 623.454 C 1268.4 624.571 1267.76 624.594 1266.05 624.901 C 1257.78 622.654 1251 614.607 1244.99 608.815 C 1261.43 588.444 1288.55 562.222 1301.39 541.193 C 1309.59 527.762 1312.88 509.804 1317.1 494.683 C 1324.45 468.277 1331.52 441.794 1338.32 415.239 C 1342.68 398.653 1346.56 381.539 1352.47 365.431 z"
     id="path16" />
  <path
     transform="translate(0,0)"
     fill="rgb(0,179,185)"
     d="M 919.316 336.101 C 920.471 336.039 921.437 336.409 922.544 336.707 C 927.593 342.414 928.334 351.055 929.717 358.309 C 920.591 362.389 910.449 364.384 901.026 367.788 C 880.476 375.211 860.59 387.448 843.417 400.919 C 789.63 443.113 761.25 496.8 753.108 564.226 L 739.75 564.125 L 728.882 564.443 C 730.979 529.612 740.466 495.626 756.71 464.744 C 783.264 413.542 826.625 373.034 879.513 350.021 C 892.401 344.371 905.922 340.358 919.316 336.101 z"
     id="path17" />
  <path
     transform="translate(0,0)"
     fill="rgb(0,179,185)"
     d="M 862.802 1001.46 C 864.583 1001.07 866.215 1001.12 868.019 1001.18 C 870.837 1005.09 868.347 1028.8 868.299 1035.83 C 867.989 1081.05 867.414 1126.82 869.819 1171.98 L 839.583 1172 C 836.656 1172.17 834.299 1172.31 831.476 1171.44 C 828.823 1156.54 830.758 1132.7 830.781 1117.06 L 830.785 1002.65 C 841.469 1002.67 852.149 1002.27 862.802 1001.46 z"
     id="path18" />
  <path
     transform="translate(0,0)"
     fill="rgb(0,179,185)"
     d="M 934.433 391.986 C 935.227 391.999 936.514 392.477 937.298 392.685 C 942.344 398.317 945.479 405.986 949.055 412.616 C 932.288 418.194 915.736 425.095 900.777 434.57 C 862.993 458.502 832.894 491.126 819.596 534.67 C 816.835 543.712 815.815 553.586 813.741 562.854 C 811.78 564.632 808.864 564.094 806.25 564.164 L 788.473 564.102 C 790.872 539.643 797.89 515.861 809.154 494.018 C 835.02 443.878 881.296 408.997 934.433 391.986 z"
     id="path19" />
  <path
     transform="translate(0,0)"
     fill="rgb(0,179,185)"
     d="M 1483.89 310.526 C 1484.14 310.642 1484.42 310.696 1484.63 310.873 C 1488.33 314.004 1490.68 359.312 1489.82 366.734 C 1488.87 374.911 1485.35 384.694 1478.44 389.708 C 1463.18 400.785 1435.24 394.025 1417.76 391.84 C 1412.94 391.137 1408 390.836 1403.15 390.368 C 1423.14 364.853 1459.58 333.413 1483.89 310.526 z"
     id="path20" />
  <g
     transform="matrix(0.0625,0,0,0.0625,2120.4453,1108.3089)"
     opacity="0.4"
     pointer-events="none"
     data-watermark="svgmaker-logo"
     id="g21">
    <defs
       id="defs1">
      <clipPath
         id="roundedSquare">
        <rect
           width="200"
           height="200"
           rx="40"
           ry="40"
           id="rect1"
           y="0"
           x="0" />
      </clipPath>
    </defs>
    <g
       transform="scale(5.12)"
       id="g20">
      <rect
         width="100"
         height="100"
         clip-path="url(#roundedSquare)"
         style="fill:#9334e8"
         id="rect2"
         y="0"
         x="0" />
      <rect
         x="100"
         width="100"
         height="100"
         clip-path="url(#roundedSquare)"
         style="fill:#2463eb"
         id="rect3"
         y="0" />
      <rect
         y="100"
         width="100"
         height="100"
         clip-path="url(#roundedSquare)"
         style="fill:#fdcb37"
         id="rect4"
         x="0" />
      <rect
         x="100"
         y="100"
         width="100"
         height="100"
         clip-path="url(#roundedSquare)"
         style="fill:#17a34a"
         id="rect5" />
      <circle
         cx="150"
         cy="50"
         r="18"
         fill="#ffffff"
         id="circle5"
         style="stroke-width:1" />
      <circle
         cx="150"
         cy="50"
         r="8"
         style="fill:#2463eb;stroke-width:1"
         id="circle6" />
      <circle
         cx="50"
         cy="100"
         r="18"
         fill="#ffffff"
         id="circle7" />
      <circle
         cx="49.686001"
         cy="100"
         r="8"
         style="fill:#9334e8;fill-opacity:1"
         id="circle8" />
      <circle
         cx="150"
         cy="150"
         r="18"
         fill="#ffffff"
         id="circle9"
         style="stroke-width:1" />
      <circle
         cx="150"
         cy="150"
         r="8"
         style="fill:#17a34a;stroke-width:1"
         id="circle10" />
      <rect
         x="15.836"
         y="106.969"
         width="78.082001"
         height="10.947"
         style="fill:#ffffff;stroke:#ffffff"
         transform="rotate(-26.999962)"
         id="rect10" />
      <rect
         x="184.646"
         y="-60.148998"
         width="78.082001"
         height="10.947"
         style="fill:#ffffff;stroke:#ffffff"
         transform="matrix(-0.891007,-0.45399,-0.45399,0.891007,274.42767,274.84188)"
         id="rect10-0" />
    </g>
  </g>
</svg>
